<svg width="40" height="45" viewBox="0 0 40 45" fill="none" xmlns="http://www.w3.org/2000/svg">
<path fill-rule="evenodd" clip-rule="evenodd" d="M0.177199 9.79819C10.461 8.13192 17.7581 2.57178 20.1212 0V44.1212C1.81273 37.3622 -0.803333 18.423 0.177199 9.79819ZM15.5151 22.5454V16H4.60604L15.5151 22.5454ZM20.1212 29.3333V35.8788L9.21211 29.3333H20.1212Z" fill="white"/>
<path d="M23.2725 22.5455V16H34.1816L23.2725 22.5455Z" fill="white"/>
<path d="M20.1211 35.879V29.3335H31.0302L20.1211 35.879Z" fill="white"/>
<path fill-rule="evenodd" clip-rule="evenodd" d="M35.4275 26.9534C37.8191 21.2973 38.3745 15.4494 38.1344 11.3936C37.2863 11.2243 36.4592 11.0303 35.6541 10.8153C31.8802 9.79006 28.5031 8.27677 25.8145 6.75437C24.2727 5.86966 22.9263 4.96252 21.7959 4.10644V4.11864C21.0116 3.5121 20.3982 2.96045 19.9816 2.50593V42.0973C20.6064 41.8486 21.211 41.5847 21.7959 41.3068V41.3406C28.8556 38.0077 33.0439 32.591 35.4275 26.9534ZM39.8237 9.85728C31.5 8.50621 25.143 4.58657 21.7959 1.79172C21.0288 1.15118 20.4198 0.569714 19.9814 0.0917969V44.0657C20.6044 43.8353 21.209 43.5908 21.7959 43.3329C38.3703 36.0502 40.7658 18.1593 39.8237 9.85728Z" fill="white"/>
</svg>
