<?xml version="1.0" encoding="UTF-8"?>
<svg width="24" height="24" viewBox="0 0 24 24" fill="none" xmlns="http://www.w3.org/2000/svg">
  <path d="M22.2647 2.42778C21.98 2.19091 21.6364 2.03567 21.2726 1.97751C20.9088 1.91935 20.5371 1.96035 20.1953 2.09678L2.26969 9.71178C1.89154 9.86783 1.56672 10.1339 1.33193 10.4772C1.09714 10.8205 0.962476 11.2273 0.943493 11.6474C0.92451 12.0675 1.02213 12.4849 1.22525 12.8486C1.42837 13.2123 1.72873 13.5076 2.09219 13.7003L5.99219 15.7753L7.96969 21.2903C8.02045 21.4368 8.10624 21.5694 8.22019 21.677C8.33414 21.7845 8.47302 21.8638 8.62469 21.9078C8.78162 21.9524 8.94654 21.9619 9.10742 21.9355C9.2683 21.9091 9.42072 21.8475 9.55219 21.7553L13.0522 19.1553L16.6497 22.0678C17.0058 22.3594 17.4445 22.5297 17.9033 22.5529C18.3621 22.5761 18.8164 22.4509 19.2022 22.1953C19.5889 21.9392 19.8895 21.5666 20.0611 21.1276C20.2326 20.6886 20.2667 20.2061 20.1597 19.7453L22.9347 3.44528C23.0228 3.09073 23.0161 2.72001 22.9151 2.36899C22.8141 2.01797 22.622 1.69725 22.3572 1.43778L22.2647 2.42778ZM17.9347 20.4378L13.7647 17.0678C13.6305 16.9577 13.4707 16.8819 13.3001 16.8466C13.1295 16.8113 12.9533 16.8175 12.7856 16.8647C12.618 16.9119 12.4638 16.9988 12.3367 17.1178C12.2097 17.2369 12.1137 17.384 12.0572 17.5478L10.2647 21.0003L8.49219 16.0503C8.44117 15.9048 8.35861 15.7726 8.24999 15.6635C8.14137 15.5544 8.00947 15.4713 7.86469 15.4203L3.44219 13.0728L19.7647 6.21528L8.77469 14.0928C8.63305 14.1942 8.51961 14.3318 8.44609 14.492C8.37256 14.6522 8.34142 14.8295 8.35547 15.0064C8.36952 15.1833 8.42827 15.3539 8.52657 15.5003C8.62487 15.6467 8.76 15.7641 8.91969 15.8403L17.9347 20.4378ZM20.9972 3.25778L18.2222 19.5578L9.20719 14.9603L20.1972 7.08278C20.3813 6.94842 20.5091 6.74861 20.5556 6.52459C20.6021 6.30057 20.5638 6.06787 20.4478 5.87078C20.3319 5.67368 20.1462 5.52507 19.9273 5.45175C19.7084 5.37843 19.4718 5.38563 19.2572 5.47228L2.93469 12.3298C2.82735 12.2563 2.74123 12.1557 2.68467 12.0376C2.62811 11.9195 2.60284 11.7877 2.61121 11.6559C2.61958 11.5241 2.66131 11.3971 2.73273 11.2875C2.80415 11.1779 2.90287 11.0894 3.01969 11.0303L20.9472 3.41528C21.0561 3.36937 21.1756 3.35398 21.2931 3.37062C21.4106 3.38726 21.5217 3.43539 21.6147 3.51028L20.9972 3.25778Z" fill="#B8B8B8"/>
</svg> 